<?xml version="1.0" encoding="utf-8"?>
<!-- Generator: Adobe Illustrator 16.0.0, SVG Export Plug-In . SVG Version: 6.00 Build 0)  -->
<!DOCTYPE svg PUBLIC "-//W3C//DTD SVG 1.1//EN" "http://www.w3.org/Graphics/SVG/1.1/DTD/svg11.dtd">
<svg version="1.1" id="Layer_1" xmlns="http://www.w3.org/2000/svg" xmlns:xlink="http://www.w3.org/1999/xlink" x="0px" y="0px"
	 width="612px" height="792px" viewBox="0 0 612 792" enable-background="new 0 0 612 792" xml:space="preserve">
<g>
	<path fill="#FFFFFF" d="M206.26,405.391l9.641,1.718c3.715,0.7,4.802,3.506,4.802,6.17c0,2.769-1.436,5.889-6.625,5.889h-3.365
		c-5.609,0-8.799-0.981-8.799-6.661c0-0.946,0.491-1.507,1.333-1.507c0.737,0,1.228,0.631,1.228,1.507
		c0,3.752,1.367,4.137,6.239,4.137h4.137c2.733,0,3.33-2.243,3.33-3.471c0-2.384-1.297-3.435-1.823-3.575l-9.57-1.788
		c-3.576-0.701-4.873-2.489-4.873-5.679c0-2.7,1.473-5.819,7.256-5.819h2.665c5.748,0,8.868,0.946,8.868,6.59
		c0,1.193-0.771,1.508-1.296,1.508c-0.772,0-1.263-0.632-1.263-1.508c0-3.751-1.333-4.064-6.309-4.064h-3.716
		c-3.049,0-3.68,2.207-3.68,3.399C204.438,403.883,205.279,405.146,206.26,405.391z"/>
	<path fill="#FFFFFF" d="M240.124,397.889c0,0.491-0.246,1.228-1.507,1.228h-5.188v18.613c0,1.122-0.912,1.403-1.508,1.403
		c-0.596,0-1.402-0.281-1.402-1.403v-18.613h-5.257c-1.227,0-1.508-0.771-1.508-1.262c0-0.491,0.281-1.262,1.508-1.262h13.356
		C239.703,396.593,240.124,397.188,240.124,397.889z"/>
	<path fill="#FFFFFF" d="M242.052,398.45c-0.141-0.246-0.351-0.526-0.351-0.911c0-0.701,0.666-1.192,1.228-1.192
		c0.525,0,0.875,0.385,1.156,0.771l6.836,8.974l6.801-8.974c0.491-0.595,0.875-0.771,1.192-0.771c0.49,0,1.227,0.456,1.227,1.192
		c0,0.385-0.21,0.665-0.35,0.911l-7.503,9.71v9.605c0,0.595-0.246,1.367-1.367,1.367c-0.631,0-1.332-0.316-1.332-1.367v-9.605
		L242.052,398.45z"/>
	<path fill="#FFFFFF" d="M263.75,417.38v-19.632c0-1.086,0.702-1.401,1.263-1.401c0.561,0,1.262,0.315,1.262,1.401v18.615h11.673
		c1.087,0,1.507,0.596,1.507,1.297c0,0.491-0.246,1.228-1.507,1.228h-13.005C264.452,418.888,263.75,418.678,263.75,417.38z"/>
	<path fill="#FF543F" d="M289.62,398.941c-2.349,0-4.697,0.876-4.697,1.822c0,1.087-0.491,1.508-1.262,1.508
		c-0.491,0-1.262-0.21-1.262-1.578c0-2.207,2.524-4.277,6.976-4.277h3.014c5.609,0,7.678,1.894,7.678,6.801
		c0,1.684-2.383,3.471-3.961,4.241c1.612,0.877,3.961,3.084,3.961,4.802c0,4.908-2.068,6.802-7.678,6.802h-3.014
		c-4.452,0-6.976-2.068-6.976-4.241c0-1.157,0.492-1.613,1.262-1.613c0.771,0,1.262,0.42,1.262,1.507
		c0,0.946,2.279,1.823,4.697,1.823h3.226c3.89,0,4.732-1.472,4.732-3.682c0-2.242-3.997-4.101-6.521-4.101
		c-1.122,0-1.858-0.28-1.858-1.298c0-1.016,0.772-1.263,1.858-1.263c2.734,0,6.521-1.438,6.521-3.645c0-2.173-0.842-3.61-4.732-3.61
		L289.62,398.941L289.62,398.941z"/>
	<path fill="#FF543F" d="M323.133,412.438c0,5.398-3.015,6.45-8.834,6.45h-7.642c-0.947,0-1.192-0.771-1.192-1.543v-19.21
		c0-1.332,0.701-1.542,1.192-1.542h8.271c5.153,0,8.204,1.051,8.204,6.449V412.438z M320.609,403.112
		c0-3.646-1.438-3.996-5.679-3.996h-6.94v17.247h6.311c4.907,0,6.309-0.351,6.309-3.996V403.112z"/>
</g>
<image display="none" overflow="visible" width="800" height="500" xlink:href="../../../../../Downloads/palette56fe78b06394b.png"  transform="matrix(1 0 0 1 -1088.9678 -30)">
</image>
<g display="none">
	<rect x="677.8" y="243.709" display="inline" fill="#F7FFF7" width="26.367" height="6.75"/>
	<rect x="677.8" y="253.834" display="inline" fill="#F7FFF7" width="26.367" height="6.75"/>
	<rect x="677.8" y="263.959" display="inline" fill="#F7FFF7" width="26.367" height="6.75"/>
</g>
</svg>
